PathFileType	4	(X/Y/Z)	Kaydara																																																																																																																									
DataRate	CameraRate	NumFrames	NumMarkers	Units	OrigDataRate	OrigDataStartFrame	OrigNumFrames																																																																																																																					
30	30	4	41	mm	30	36	142																																																																																																																					
Frame#	Time	PAIB_LFHD			PAIB_RFHD			PAIB_LBHD			PAIB_RBHD			PAIB_LFTShould			PAIB_RFTShould			PAIB_LRRShould			PAIB_RRRShould			PAIB_T10			PAIB_STRN			PAIB_TRUN			PAIB_LSHO			PAIB_LUPA			PAIB_LELB			PAIB_LFRM			PAIB_LWRA			PAIB_LWRB			PAIB_LFIN			PAIB_RSHO			PAIB_RUPA			PAIB_RELB			PAIB_RFRM			PAIB_RWRA			PAIB_RWRB			PAIB_RFIN			PAIB_LFWT			PAIB_RFWT			PAIB_LBWT			PAIB_RBWT			PAIB_LTHI			PAIB_LKNE			PAIB_LSHN			PAIB_LANK			PAIB_LHEE			PAIB_LTOE			PAIB_RTHI			PAIB_RKNE			PAIB_RSHN			PAIB_RANK			PAIB_RHEE			PAIB_RTOE		
		X1	Y1	Z1	X2	Y2	Z2	X3	Y3	Z3	X4	Y4	Z4	X5	Y5	Z5	X6	Y6	Z6	X7	Y7	Z7	X8	Y8	Z8	X9	Y9	Z9	X10	Y10	Z10	X11	Y11	Z11	X12	Y12	Z12	X13	Y13	Z13	X14	Y14	Z14	X15	Y15	Z15	X16	Y16	Z16	X17	Y17	Z17	X18	Y18	Z18	X19	Y19	Z19	X20	Y20	Z20	X21	Y21	Z21	X22	Y22	Z22	X23	Y23	Z23	X24	Y24	Z24	X25	Y25	Z25	X26	Y26	Z26	X27	Y27	Z27	X28	Y28	Z28	X29	Y29	Z29	X30	Y30	Z30	X31	Y31	Z31	X32	Y32	Z32	X33	Y33	Z33	X34	Y34	Z34	X35	Y35	Z35	X36	Y36	Z36	X37	Y37	Z37	X38	Y38	Z38	X39	Y39	Z39	X40	Y40	Z40	X41	Y41	Z41
																																																																																																																												
36	1.177	241.47598	1693.74115	-1959.31519	56.25285	1692.98492	-1971.48514	258.69026	1662.49359	-2085.83603	55.64317	1672.38754	-2087.11594	218.77008	1436.34872	-1981.49002	94.18064	1431.87027	-1984.20715	228.57126	1505.51483	-2123.21854	75.69454	1500.70938	-2116.92093	152.96348	1347.8009	-2208.83743	165.74785	1367.80029	-1946.09711	166.1408	1265.36369	-1928.58017	353.49037	1452.79221	-2062.30133	414.50005	1226.85974	-2099.54285	425.20714	1150.64438	-2147.0697	446.99169	1033.88222	-2107.82211	394.78275	920.26695	-2021.54388	429.31374	903.89397	-2089.60251	444.69238	866.42952	-2027.66953	-35.6379	1433.99902	-2044.90952	-102.43878	1269.85039	-2114.11087	-127.80902	1157.37495	-2134.84879	-149.8635	1022.39388	-2105.8931	-97.31889	919.45419	-2007.09122	-161.17174	903.7336	-2058.1868	-156.67989	869.28734	-1992.22198	274.60978	980.19257	-1986.34583	37.56565	976.80603	-1981.2706	202.88084	1010.77835	-2205.61523	63.08835	1024.38454	-2193.84598	258.56817	749.58984	-2193.55774	309.90486	503.38741	-2099.45206	290.63763	314.22827	-2092.17361	290.76309	131.1338	-2184.00345	229.98758	119.78676	-2223.88321	292.3638	74.72549	-2003.35266	11.28939	722.00432	-2175.81512	2.55157	480.98961	-2080.81787	62.92803	294.40775	-2090.95734	27.81095	112.13884	-2204.19205	87.56546	115.41007	-2244.17267	45.12529	76.3575	-2009.78683
37	1.21	241.34445	1693.60565	-1958.17169	56.02736	1692.56866	-1970.56412	258.72066	1662.30728	-2084.64279	55.61539	1671.95618	-2086.18576	218.74973	1436.25641	-1980.43732	94.19475	1431.79108	-1983.60687	228.89965	1505.59784	-2122.28363	75.96649	1500.82413	-2116.26907	153.33117	1348.08167	-2208.47977	165.89931	1367.5856	-1945.46524	166.15688	1265.0956	-1928.08899	353.71738	1452.88712	-2061.20316	415.04715	1226.84647	-2098.34473	425.96245	1150.84396	-2145.95016	447.64439	1034.02405	-2106.66672	395.23399	920.43167	-2020.65033	429.94305	904.03885	-2088.61618	445.12653	866.57379	-2026.57211	-35.43703	1434.11713	-2044.51645	-102.35594	1270.06371	-2113.83148	-127.85054	1157.61269	-2134.59274	-150.04698	1022.67586	-2105.33035	-97.2551	920.06157	-2006.23795	-161.49603	904.18091	-2057.33032	-157.07211	869.90517	-1991.21735	274.6912	980.06195	-1986.31439	37.6549	976.76987	-1981.5448	203.34381	1010.65323	-2205.82565	63.46392	1024.3734	-2194.33746	258.99189	749.30374	-2193.38745	310.07923	503.42304	-2098.65967	290.66214	314.05064	-2091.58966	290.77656	131.126	-2183.98148	229.99636	119.84865	-2223.80325	292.36481	74.75557	-2003.38715	11.6081	721.90506	-2176.06567	2.69177	480.99648	-2080.76782	63.04469	294.3401	-2090.87799	27.87591	112.06005	-2204.20868	87.63227	115.3854	-2244.19846	45.12809	76.37734	-2009.81491
38	1.243	241.21931	1693.53729	-1957.10831	55.85685	1692.05215	-1969.7171	258.77584	1662.42523	-2083.6171	55.63864	1671.62323	-2085.3981	218.93421	1436.09131	-1979.8291	94.43649	1431.73523	-1983.03467	229.28787	1505.74875	-2121.45447	76.33509	1500.87936	-2115.70618	153.76594	1348.28613	-2207.97501	165.92634	1367.43347	-1944.9028	166.1248	1264.9411	-1927.56943	353.91026	1453.04062	-2060.00092	415.44899	1227.14821	-2097.23618	426.58436	1151.13007	-2144.88129	448.13831	1034.30191	-2105.62302	395.47081	920.55847	-2019.83932	430.44815	904.26834	-2087.70706	445.46867	866.83022	-2025.70465	-35.16819	1434.18961	-2044.00696	-102.22894	1270.30296	-2113.45627	-127.9073	1157.91779	-2134.35104	-150.16042	1023.00537	-2104.83368	-97.58635	920.60539	-2005.38391	-161.68135	904.61151	-2056.57486	-157.36661	870.52727	-1990.42908	274.76238	980.06447	-1986.21307	37.70546	976.69762	-1981.93817	203.78241	1010.73036	-2205.95993	63.84063	1024.36478	-2194.71054	259.44588	749.1851	-2193.2663	310.30081	503.52661	-2097.90497	290.82451	313.92254	-2091.09436	290.8054	131.23346	-2183.57254	230.0025	119.9776	-2223.62244	292.36526	74.71741	-2003.349	12.00025	721.69807	-2176.1377	2.84954	480.85739	-2080.30106	63.16278	294.20185	-2090.64713	27.88263	111.97771	-2204.05228	87.61895	115.39334	-2244.15115	45.11371	76.36181	-2009.84283
39	1.277	241.02961	1693.33176	-1955.99609	55.64903	1691.59256	-1968.74969	258.75486	1662.75574	-2082.65549	55.64591	1671.50345	-2084.52484	219.10975	1436.19675	-1979.19479	94.63247	1431.78024	-1982.77664	229.74873	1505.82962	-2120.79788	76.79769	1500.9198	-2115.31357	154.41648	1348.4137	-2207.59247	165.99789	1367.48245	-1944.41284	166.25576	1265.01274	-1927.07077	354.30874	1453.16162	-2059.11957	415.90332	1227.23236	-2096.16882	427.18658	1151.2616	-2143.80264	448.59081	1034.39339	-2104.57779	395.56915	920.62256	-2019.12796	430.78011	904.32274	-2086.82571	445.58994	866.77307	-2024.76334	-34.77037	1434.27765	-2043.73383	-102.05896	1270.52582	-2113.24844	-127.94408	1158.19458	-2134.09225	-150.24886	1023.32993	-2104.35104	-97.67033	921.054	-2004.75342	-161.76661	905.00748	-2055.83145	-157.42739	871.00533	-1989.69818	274.51975	980.09834	-1985.84152	37.59497	976.70837	-1982.14493	204.29659	1010.91171	-2205.7399	64.33144	1024.36234	-2194.98474	259.68355	749.18549	-2192.99652	310.49686	503.64609	-2097.33841	290.91995	313.86612	-2090.60715	290.79115	131.35318	-2183.43704	230.02628	120.11874	-2223.5408	292.351	74.68538	-2003.30414	12.50696	721.30775	-2176.08994	3.05507	480.70808	-2079.55872	63.22374	294.08297	-2090.12329	27.97155	112.2068	-2203.94089	87.74604	115.52602	-2243.97232	45.12715	76.32181	-2009.75433
